<svg width="138" height="170" viewBox="0 0 138 170" fill="none" xmlns="http://www.w3.org/2000/svg">
<g clip-path="url(#clip0_267_1873)">
<path d="M48.4746 2.90497C82.2505 2.71738 99.4516 3.16662 111.505 6.14101C128.05 10.2234 131.241 24.2934 133.725 46.6164C135.059 58.6089 133.35 77.5993 133.251 93.0916C133.109 115.329 133.44 154.404 133.08 159.806C132.399 170.015 116.301 169.133 115.658 159.812C114.786 147.163 116.194 108.114 113.708 95.2945C110.203 77.2176 99.9264 74.744 87.6707 73.4653C80.5864 72.7261 72.5339 72.0312 67.2121 67.297C63.4225 63.9257 61.1527 53.3389 61.1527 53.3389" stroke="white" stroke-width="5.72945" stroke-miterlimit="11.2" stroke-linecap="round" stroke-linejoin="round"/>
<path d="M99.2305 35.8313C101.281 35.8313 102.943 33.4165 102.943 30.4376C102.943 27.4588 101.281 25.0439 99.2305 25.0439C97.1799 25.0439 95.5176 27.4588 95.5176 30.4376C95.5176 33.4165 97.1799 35.8313 99.2305 35.8313Z" fill="#FDFDFD"/>
<path d="M31.8464 33.6625C35.4596 34.9659 37.4807 38.2401 34.6821 42.0513C32.018 45.6794 25.2635 45.3133 21.4039 41.6229C16.3516 36.7921 16.9596 28.6395 21.7059 23.8369C27.8024 17.6681 37.9785 18.4553 43.9362 24.3767C51.4641 31.8588 50.4549 44.2313 43.0912 51.4343C33.9199 60.4055 18.8755 59.1505 10.1619 50.2276C-0.553295 39.2551 1.00212 21.3813 11.8185 11.0776C13.9181 9.07745 20.3715 4.59358 29.7145 3.35654C33.4182 2.86617 43.1924 2.85377 48.8127 2.90494" stroke="white" stroke-width="5.72945" stroke-linecap="round" stroke-linejoin="round"/>
</g>
<defs>
<clipPath id="clip0_267_1873">
<rect width="137.109" height="170" fill="white"/>
</clipPath>
</defs>
</svg>
